<svg xmlns="http://www.w3.org/2000/svg" viewBox="0 0 1375.66 1246.98"><defs><style>.cls-1{fill:#f5e0cd;stroke:#767769;stroke-width:8px;}.cls-1,.cls-2{stroke-miterlimit:10;}.cls-2{fill:#b1c0c9;stroke:#b1c0c9;}</style></defs><title>lovrinac</title><g id="lovrinac"><path class="cls-1" d="M419.74,371.23,412.6,326.3s55.14-19.41,59.23-21.45l34.72-17.36h73.54l47,5.11,134.81-5.11H818l95,33.7,127.66,44.94L973.28,553l-9.19,16.34,57.19,6.13L1029.45,743,1081.53,794l5.11,17.36-98,99.41L958,947.23,866,959.49l-163.4-5.11L546.38,910.81l-87.83-38.13L412.6,780.77l-34.73-31.66-38.76-12.26s-15.37-10.21-18.43-11.23-26.55-70.47-26.55-70.47L289,571.4l18.38-86.8,49-76.6Z"/><rect class="cls-2" x="458.86" y="379.91" width="61.28" height="119.49" rx="12" transform="translate(49.84 929.16) rotate(-90)"/><rect class="cls-2" x="600.46" y="398.16" width="61.28" height="119.49" rx="12" transform="translate(136.47 -144.84) rotate(14.66)"/><rect class="cls-2" x="395.3" y="538.66" width="61.28" height="119.49" rx="12" transform="translate(654.94 -99.5) rotate(53.61)"/><rect class="cls-2" x="796.03" y="791.49" width="61.28" height="119.49" rx="12" transform="translate(411.97 -260.53) rotate(23.71)"/><rect class="cls-2" x="506.52" y="704.48" width="61.28" height="119.49" rx="12" transform="translate(-331.15 419.81) rotate(-33.26)"/><rect class="cls-2" x="610.01" y="614.74" width="61.28" height="119.49" rx="12" transform="translate(-150.18 184.63) rotate(-14.7)"/><rect class="cls-2" x="733.84" y="398.16" width="61.28" height="119.49" rx="12" transform="matrix(0.87, -0.5, 0.5, 0.87, -126.53, 443.59)"/><rect class="cls-2" x="918.95" y="791.49" width="61.28" height="119.49" rx="12"/><rect class="cls-2" x="903.81" y="625.02" width="61.28" height="119.49" rx="12" transform="translate(-206.75 485.37) rotate(-26.32)"/><rect class="cls-2" x="669.96" y="776.68" width="61.28" height="119.49" rx="12"/><rect class="cls-2" x="760.34" y="594.38" width="61.28" height="119.49" rx="12" transform="translate(136.85 1445.11) rotate(-90)"/><rect class="cls-2" x="873.17" y="398.16" width="61.28" height="119.49" rx="12" transform="translate(190.28 -261.42) rotate(18.36)"/></g></svg>