<svg xmlns="http://www.w3.org/2000/svg" viewBox="0 0 1375.66 1246.98"><defs><style>.cls-1{fill:#f5e0cd;stroke:#767769;stroke-width:8px;}.cls-1,.cls-2{stroke-miterlimit:10;}.cls-2{fill:#b1c0c9;stroke:#b1c0c9;}</style></defs><title>mirogoj</title><g id="mirogoj"><path class="cls-1" d="M221.62,302.19v674H634.21l82.73-65.72,42.38-3.07,79.15,25.54s54.13,10.21,60.25,14.29,110.3,29,110.3,29l76.6,22.11,38.81-9.19L1154,949.28V930.89l-164.42-97L856.85,731.74,759.32,629.62l-49.53-56.17L646.47,551l-1-67.41L610.72,410l-44.93-95L526,276.26l-36.77-17.37-86.81-10.21H221.62Z"/><rect class="cls-2" x="327.66" y="822.13" width="61.28" height="119.49" rx="12" transform="translate(-291.02 185.84) rotate(-20.9)"/><rect class="cls-2" x="456.88" y="799.66" width="61.28" height="119.49" rx="12" transform="translate(-251.19 203.24) rotate(-18.82)"/><rect class="cls-2" x="558.87" y="690.02" width="61.28" height="119.49" rx="12" transform="translate(-160.25 1339.27) rotate(-90)"/><rect class="cls-2" x="265.51" y="659.38" width="61.28" height="119.49" rx="12" transform="translate(241.63 -56.68) rotate(18.36)"/><rect class="cls-2" x="383.16" y="380.94" width="61.28" height="119.49" rx="12" transform="translate(244.74 -139.71) rotate(26.96)"/><rect class="cls-2" x="270.76" y="282.32" width="61.28" height="119.49" rx="12" transform="translate(-150.53 281.98) rotate(-41.04)"/><rect class="cls-2" x="361.35" y="504" width="61.28" height="119.49" rx="12" transform="translate(955.74 171.75) rotate(90)"/><rect class="cls-2" x="492.77" y="324.9" width="61.28" height="119.49" rx="12" transform="translate(-118.69 482.76) rotate(-45)"/><rect class="cls-2" x="523.4" y="504" width="61.28" height="119.49" rx="12"/><rect class="cls-2" x="407.31" y="643.97" width="61.28" height="119.49" rx="12" transform="translate(192.41 -87.94) rotate(14.66)"/><rect class="cls-2" x="687.83" y="627.06" width="61.28" height="119.49" rx="12" transform="translate(-275.21 709.2) rotate(-45)"/><rect class="cls-2" x="623.49" y="799.66" width="61.28" height="119.49" rx="12" transform="translate(957.85 -177.04) rotate(53.61)"/><rect class="cls-2" x="833.05" y="789.45" width="61.28" height="119.49" rx="12" transform="translate(1241.84 -301.5) rotate(63.68)"/><rect class="cls-2" x="978.38" y="859.4" width="61.28" height="119.49" rx="12" transform="translate(-238.23 1473.51) rotate(-66.29)"/></g></svg>