<svg xmlns="http://www.w3.org/2000/svg" viewBox="0 0 1375.66 1246.98"><defs><style>.cls-1{fill:#f5e0cd;stroke:#767769;}.cls-1,.cls-2{stroke-miterlimit:10;stroke-width:8px;}.cls-2{fill:#b1c0c9;stroke:#b1c0c9;}</style></defs><title>varazdin</title><g id="varazdin"><path class="cls-1" d="M198.15,452.54,224.7,421.9l44.94-18.38s37.79-15.32,40.85-15.32S371.77,377,371.77,377h81.7V767.1l-10.21,21.44-24.52,8.17L373.81,724.2,306.4,612.85,240,510.76Z"/><polygon class="cls-1" points="509.64 756.88 509.64 652.71 509.64 559.78 509.64 413.73 509.64 365.73 523.94 360.63 575 360.63 781.3 370.84 959 384.12 1061.13 399.44 1143.85 435.18 1177.51 491.35 1169.38 621.05 1165.3 740.54 1161.21 866.16 1112.19 886.35 1028.45 875.35 921.21 851.86 797.64 824.29 697.51 796.71 555.6 766.07 509.64 756.88"/><rect class="cls-2" x="354.85" y="566.47" width="61.28" height="119.49" rx="12" transform="translate(-198.03 178.72) rotate(-20.9)"/><rect class="cls-2" x="317.96" y="414.01" width="61.28" height="119.49" rx="12" transform="translate(553.55 -77.57) rotate(56.74)"/><rect class="cls-2" x="721.02" y="414.01" width="61.28" height="119.49" rx="12"/><rect class="cls-2" x="654.46" y="623.49" width="61.28" height="119.49" rx="12" transform="translate(139.83 -116.05) rotate(10.78)"/><rect class="cls-2" x="925.61" y="677.22" width="61.28" height="119.49" rx="12" transform="matrix(0.97, -0.25, 0.25, 0.97, -155.7, 266.75)"/><rect class="cls-2" x="1041.52" y="683.23" width="61.28" height="119.49" rx="12"/><rect class="cls-2" x="1061.6" y="483.16" width="61.28" height="119.49" rx="12" transform="translate(-63.98 931.34) rotate(-45)"/><rect class="cls-2" x="597.16" y="407.35" width="61.28" height="119.49" rx="12" transform="translate(1094.89 -160.7) rotate(90)"/><rect class="cls-2" x="843.09" y="410.62" width="61.28" height="119.49" rx="12" transform="translate(192.67 -251.31) rotate(18.36)"/><rect class="cls-2" x="952.27" y="446.86" width="61.28" height="119.49" rx="12" transform="translate(112.05 -174.84) rotate(10.78)"/><rect class="cls-2" x="548.45" y="594.38" width="61.28" height="119.49" rx="12" transform="translate(132.52 -96.74) rotate(10.78)"/><rect class="cls-2" x="782.3" y="677.22" width="61.28" height="119.49" rx="12"/></g></svg>